<svg width="10" height="6" viewBox="0 0 10 6" fill="none" xmlns="http://www.w3.org/2000/svg">
<path d="M0.729492 5.08333C0.604492 4.97222 0.541992 4.82972 0.541992 4.65583C0.541992 4.4825 0.604492 4.33333 0.729492 4.20833L4.47949 0.479167C4.54894 0.395834 4.62894 0.336667 4.71949 0.301667C4.80949 0.267222 4.9031 0.25 5.00033 0.25C5.09755 0.25 5.19144 0.267222 5.28199 0.301667C5.37199 0.336667 5.45171 0.395834 5.52116 0.479167L9.29199 4.22917C9.4031 4.35417 9.45866 4.49639 9.45866 4.65583C9.45866 4.81583 9.39616 4.95833 9.27116 5.08333C9.14616 5.20833 9.00033 5.27083 8.83366 5.27083C8.66699 5.27083 8.52116 5.20833 8.39616 5.08333L5.00033 1.70833L1.58366 5.10417C1.47255 5.22917 1.33366 5.29167 1.16699 5.29167C1.00033 5.29167 0.854492 5.22222 0.729492 5.08333Z" fill="#085073"/>
</svg>
