<svg width="32" height="32" viewBox="0 0 32 32" fill="none" xmlns="http://www.w3.org/2000/svg">
<path d="M5.93684 24.9263C7.36842 23.8596 8.92632 23.0175 10.6105 22.4C12.2947 21.7825 14.0912 21.4737 16 21.4737C17.9088 21.4737 19.7053 21.7825 21.3895 22.4C23.0737 23.0175 24.6316 23.8596 26.0632 24.9263C27.1018 23.7754 27.9298 22.4421 28.5474 20.9263C29.1649 19.4105 29.4737 17.7684 29.4737 16C29.4737 12.2667 28.1617 9.08744 25.5377 6.46232C22.9126 3.83832 19.7333 2.52632 16 2.52632C12.2667 2.52632 9.088 3.83832 6.464 6.46232C3.83888 9.08744 2.52632 12.2667 2.52632 16C2.52632 17.7684 2.83509 19.4105 3.45263 20.9263C4.07018 22.4421 4.89825 23.7754 5.93684 24.9263ZM16 17.2632C14.4561 17.2632 13.1582 16.7366 12.1061 15.6834C11.0529 14.6313 10.5263 13.3333 10.5263 11.7895C10.5263 10.2456 11.0529 8.94765 12.1061 7.89558C13.1582 6.84239 14.4561 6.31579 16 6.31579C17.5439 6.31579 18.8418 6.84239 19.8939 7.89558C20.9471 8.94765 21.4737 10.2456 21.4737 11.7895C21.4737 13.3333 20.9471 14.6313 19.8939 15.6834C18.8418 16.7366 17.5439 17.2632 16 17.2632ZM16 32C13.7825 32 11.6985 31.5789 9.74821 30.7368C7.79677 29.8947 6.10526 28.7579 4.67368 27.3263C3.24211 25.8947 2.10526 24.2032 1.26316 22.2518C0.421053 20.3015 0 18.2175 0 16C0 13.7825 0.421053 11.698 1.26316 9.74653C2.10526 7.79621 3.24211 6.10526 4.67368 4.67368C6.10526 3.24211 7.79677 2.10526 9.74821 1.26316C11.6985 0.421053 13.7825 0 16 0C18.2175 0 20.302 0.421053 22.2535 1.26316C24.2038 2.10526 25.8947 3.24211 27.3263 4.67368C28.7579 6.10526 29.8947 7.79621 30.7368 9.74653C31.5789 11.698 32 13.7825 32 16C32 18.2175 31.5789 20.3015 30.7368 22.2518C29.8947 24.2032 28.7579 25.8947 27.3263 27.3263C25.8947 28.7579 24.2038 29.8947 22.2535 30.7368C20.302 31.5789 18.2175 32 16 32Z" fill="black" fill-opacity="0.24"/>
</svg>
