<svg width="10" height="6" viewBox="0 0 10 6" fill="none" xmlns="http://www.w3.org/2000/svg">
<path d="M4.99984 5.20833C4.90262 5.20833 4.809 5.19444 4.719 5.16666C4.62845 5.13889 4.54845 5.08333 4.479 5L0.70817 1.25C0.597059 1.125 0.541504 0.979164 0.541504 0.812497C0.541504 0.645831 0.604004 0.499998 0.729004 0.374998C0.854004 0.263886 0.999837 0.20833 1.1665 0.20833C1.33317 0.20833 1.479 0.263886 1.604 0.374998L4.99984 3.77083L8.4165 0.374998C8.52762 0.249998 8.6665 0.190831 8.83317 0.197497C8.99984 0.20472 9.14567 0.263886 9.27067 0.374998C9.39567 0.499998 9.45817 0.649164 9.45817 0.822497C9.45817 0.996386 9.39567 1.13889 9.27067 1.25L5.52067 5C5.45123 5.08333 5.3715 5.13889 5.2815 5.16666C5.19095 5.19444 5.09706 5.20833 4.99984 5.20833Z" fill="#085073"/>
</svg>
