<svg width="20" height="19" viewBox="0 0 20 19" fill="none" xmlns="http://www.w3.org/2000/svg">
<path d="M9.99995 18.4998C8.81662 18.4998 7.71262 18.2748 6.68795 17.8248C5.66262 17.3748 4.76662 16.7665 3.99995 15.9998C3.23328 15.2331 2.62495 14.3371 2.17495 13.3118C1.72495 12.2871 1.49995 11.1831 1.49995 9.9998C1.49995 8.81647 1.72495 7.71247 2.17495 6.6878C2.62495 5.66247 3.23328 4.76647 3.99995 3.9998C4.76662 3.23314 5.66262 2.6248 6.68795 2.1748C7.71262 1.7248 8.81662 1.4998 9.99995 1.4998C11.1833 1.4998 12.2873 1.7248 13.312 2.1748C14.3373 2.6248 15.2333 3.23314 16 3.9998C16.7666 4.76647 17.375 5.66247 17.825 6.6878C18.275 7.71247 18.5 8.81647 18.5 9.9998C18.5 11.1831 18.275 12.2871 17.825 13.3118C17.375 14.3371 16.7666 15.2331 16 15.9998C15.2333 16.7665 14.3373 17.3748 13.312 17.8248C12.2873 18.2748 11.1833 18.4998 9.99995 18.4998ZM9.24995 5.7498V9.9248C9.24995 10.0415 9.27062 10.1538 9.31195 10.2618C9.35395 10.3705 9.42495 10.4748 9.52495 10.5748L12.475 13.5248C12.6083 13.6581 12.775 13.7248 12.975 13.7248C13.175 13.7248 13.35 13.6498 13.5 13.4998C13.65 13.3498 13.725 13.1748 13.725 12.9748C13.725 12.7748 13.65 12.5998 13.5 12.4498L10.75 9.6998V5.7248C10.75 5.52481 10.6793 5.3538 10.538 5.2118C10.396 5.07047 10.2166 4.9998 9.99995 4.9998C9.78329 4.9998 9.60429 5.07047 9.46295 5.2118C9.32095 5.3538 9.24995 5.53314 9.24995 5.7498ZM1.44995 4.2998C1.29995 4.4498 1.12928 4.52481 0.937951 4.52481C0.745951 4.52481 0.574951 4.44147 0.424951 4.27481C0.274951 4.14147 0.199951 3.97047 0.199951 3.7618C0.199951 3.5538 0.274951 3.3748 0.424951 3.2248L3.24995 0.399805C3.38328 0.249805 3.54995 0.174805 3.74995 0.174805C3.94995 0.174805 4.12495 0.258138 4.27495 0.424805C4.42495 0.558138 4.49995 0.729138 4.49995 0.937805C4.49995 1.1458 4.42495 1.3248 4.27495 1.4748L1.44995 4.2998ZM18.525 4.27481L15.7 1.4498C15.55 1.2998 15.475 1.1288 15.475 0.936805C15.475 0.745471 15.5583 0.574805 15.725 0.424805C15.8583 0.274805 16.0293 0.199805 16.238 0.199805C16.446 0.199805 16.625 0.274805 16.775 0.424805L19.6 3.2498C19.75 3.38314 19.825 3.5498 19.825 3.7498C19.825 3.9498 19.7416 4.1248 19.575 4.27481C19.4416 4.42481 19.2706 4.4998 19.062 4.4998C18.854 4.4998 18.6749 4.42481 18.525 4.27481ZM9.99995 16.9998C11.95 16.9998 13.604 16.3205 14.962 14.9618C16.3206 13.6038 17 11.9498 17 9.9998C17 8.0498 16.3206 6.39547 14.962 5.0368C13.604 3.6788 11.95 2.9998 9.99995 2.9998C8.04995 2.9998 6.39595 3.6788 5.03795 5.0368C3.67928 6.39547 2.99995 8.0498 2.99995 9.9998C2.99995 11.9498 3.67928 13.6038 5.03795 14.9618C6.39595 16.3205 8.04995 16.9998 9.99995 16.9998Z" fill="#333333"/>
</svg>
