<?xml version="1.0" encoding="iso-8859-1"?>
<!-- Generator: Adobe Illustrator 19.0.0, SVG Export Plug-In . SVG Version: 6.00 Build 0)  -->
<svg version="1.1" id="Layer_1" xmlns="http://www.w3.org/2000/svg" xmlns:xlink="http://www.w3.org/1999/xlink" x="0px" y="0px"
	 viewBox="0 0 512 512" style="enable-background:new 0 0 512 512;" xml:space="preserve">
<circle style="fill:#FEE187;" cx="256" cy="256" r="256"/>
<path style="fill:#FFC61B;" d="M509.192,293.972l-78.864-78.864l-13.627,34.059L290.052,122.52l-107.46,132.611l-77.564,110.216
	l146.597,146.597c1.457,0.024,2.91,0.055,4.372,0.055C384.481,512,490.846,417.347,509.192,293.972z"/>
<path style="fill:#386895;" d="M282.388,273.36H130.246c-6.492,0-11.755-5.263-11.755-11.755V131.419
	c0-6.492,5.263-11.755,11.755-11.755h152.142c6.492,0,11.755,5.263,11.755,11.755v130.186
	C294.143,268.097,288.88,273.36,282.388,273.36z"/>
<g>
	<path style="fill:#273B7A;" d="M282.388,119.665h-76.381V273.36h76.381c6.492,0,11.755-5.263,11.755-11.755V131.419
		C294.143,124.926,288.88,119.665,282.388,119.665z"/>
	<path style="fill:#273B7A;" d="M228.274,162.578h-43.913c-5.511,0-9.98-4.468-9.98-9.98l0,0c0-5.511,4.468-9.98,9.98-9.98h43.913
		c5.511,0,9.98,4.468,9.98,9.98l0,0C238.254,158.111,233.786,162.578,228.274,162.578z"/>
</g>
<path style="fill:#121149;" d="M228.273,142.619h-22.266v19.961h22.268c5.511,0,9.98-4.468,9.98-9.981
	C238.254,147.087,233.786,142.619,228.273,142.619z"/>
<path style="fill:#D35933;" d="M422.846,369.562H267.355c-6.635,0-12.014-5.379-12.014-12.014V224.497
	c0-6.635,5.379-12.014,12.014-12.014h155.491c6.635,0,12.014,5.379,12.014,12.014v133.051
	C434.86,364.184,429.482,369.562,422.846,369.562z"/>
<path style="fill:#B54324;" d="M422.846,212.485h-78.927v157.077h78.927c6.635,0,12.014-5.379,12.014-12.014V224.497
	C434.86,217.862,429.482,212.485,422.846,212.485z"/>
<path style="fill:#C92F00;" d="M367.54,256.343h-44.88c-5.634,0-10.2-4.567-10.2-10.2l0,0c0-5.634,4.567-10.2,10.2-10.2h44.88
	c5.634,0,10.2,4.567,10.2,10.2l0,0C377.741,251.776,373.174,256.343,367.54,256.343z"/>
<g>
	<path style="fill:#930000;" d="M367.54,235.944h-23.621v20.399h23.621c5.634,0,10.2-4.567,10.2-10.2
		C377.74,240.509,373.174,235.944,367.54,235.944z"/>
	<path style="fill:#930000;" d="M245.763,369.562H113.295c-5.653,0-10.235-4.582-10.235-10.235V245.975
		c0-5.653,4.582-10.235,10.235-10.235h132.47c5.653,0,10.235,4.582,10.235,10.235v113.352
		C255.998,364.98,251.416,369.562,245.763,369.562z"/>
</g>
<path style="fill:#7F0101;" d="M245.763,235.741h-65.615v133.822h65.617c5.653,0,10.235-4.582,10.235-10.235V245.975
	C255.998,240.323,251.416,235.741,245.763,235.741z"/>
<path style="fill:#C92F00;" d="M198.647,273.106h-38.236c-4.799,0-8.69-3.891-8.69-8.69l0,0c0-4.799,3.891-8.69,8.69-8.69h38.235
	c4.799,0,8.69,3.891,8.69,8.69l0,0C207.336,269.215,203.447,273.106,198.647,273.106z"/>
<path style="fill:#930000;" d="M198.647,255.728h-18.499v17.379h18.499c4.799,0,8.69-3.891,8.69-8.69
	C207.336,259.617,203.447,255.728,198.647,255.728z"/>
<g>
</g>
<g>
</g>
<g>
</g>
<g>
</g>
<g>
</g>
<g>
</g>
<g>
</g>
<g>
</g>
<g>
</g>
<g>
</g>
<g>
</g>
<g>
</g>
<g>
</g>
<g>
</g>
<g>
</g>
</svg>
