<?xml version="1.0" encoding="iso-8859-1"?>
<!-- Generator: Adobe Illustrator 19.0.0, SVG Export Plug-In . SVG Version: 6.00 Build 0)  -->
<svg version="1.1" id="Layer_1" xmlns="http://www.w3.org/2000/svg" xmlns:xlink="http://www.w3.org/1999/xlink" x="0px" y="0px"
	 viewBox="0 0 512 512" style="enable-background:new 0 0 512 512;" xml:space="preserve">
<circle style="fill:#FABC3D;" cx="256" cy="256" r="256"/>
<path style="fill:#0484AB;" d="M118.751,330.636h264.052l8.206-23.505H209.482V200.076h-48.654c-4.836,0-9.323,2.509-11.855,6.628
	l-30.478,50.963c-1.35,2.192-2.067,4.72-2.067,7.294v65.908C117.183,330.719,117.955,330.636,118.751,330.636z"/>
<path style="fill:#CFD3D4;" d="M118.751,330.636c-6.409,0-11.604,5.194-11.604,11.604c0,6.405,5.194,11.604,11.604,11.604H386.42
	V330.64H118.751V330.636z"/>
<circle style="fill:#3E3E3F;" cx="158.199" cy="353.839" r="32.489"/>
<circle style="fill:#CFD3D4;" cx="158.199" cy="353.839" r="12.995"/>
<circle style="fill:#3E3E3F;" cx="334.555" cy="353.839" r="32.489"/>
<circle style="fill:#CFD3D4;" cx="334.555" cy="353.839" r="12.995"/>
<path style="fill:#DF2C2C;" d="M404.945,297.849c0,5.125-4.156,9.281-5.79,9.281H209.482V144.221c0-5.125,4.157-9.281,9.281-9.281
	H395.12c5.125,0,9.281,4.157,9.281,9.281L404.945,297.849z"/>
<rect x="162.839" y="274.944" style="fill:#21B2D1;" width="27.843" height="9.281"/>
<path style="fill:#059BBF;" d="M208.189,200.69l-47.36-0.614c-4.836,0-9.323,2.509-11.855,6.628l-30.478,50.963
	c-1.35,2.192-2.067,4.72-2.067,7.294v27.485L208.189,200.69z"/>
<polygon style="fill:#40C9E7;" points="190.864,218.694 190.864,255.93 135.01,255.93 158.282,218.694 "/>
<polygon style="fill:#6FDAF1;" points="158.282,218.694 135.01,255.93 152.948,255.93 190.185,218.694 "/>
<g>
	<path style="fill:#FFFFFF;" d="M241.394,216.432h19.247v11.776h-19.247v17.203h-12.763v-49.92h34.76v11.985h-21.997V216.432z"/>
	<path style="fill:#FFFFFF;" d="M284.253,229.548h-2.257v15.863h-12.763v-49.92h19.954c10.296,0,18.26,4.724,18.544,16.431
		c0,9.235-3.738,14.452-9.798,16.356l13.61,17.133H295.82L284.253,229.548z M289.396,218.689c7.969,0,7.969-11.422,0-11.422h-7.401
		v11.422H289.396z"/>
	<path style="fill:#FFFFFF;" d="M327.536,215.091h20.233v10.929h-20.233v7.475h21.997v11.916h-34.76v-49.92h34.76v11.846h-21.997
		V215.091z"/>
	<path style="fill:#FFFFFF;" d="M368.984,215.091h20.233v10.929h-20.233v7.475h21.997v11.916h-34.76v-49.92h34.76v11.846h-21.997
		V215.091z"/>
</g>
<path style="fill:#FA5655;" d="M274.069,134.94h-55.305c-5.125,0-9.281,4.156-9.281,9.281v55.305L274.069,134.94z"/>
<g>
</g>
<g>
</g>
<g>
</g>
<g>
</g>
<g>
</g>
<g>
</g>
<g>
</g>
<g>
</g>
<g>
</g>
<g>
</g>
<g>
</g>
<g>
</g>
<g>
</g>
<g>
</g>
<g>
</g>
</svg>
