<svg width="16" height="16" viewBox="0 0 16 16" fill="none" xmlns="http://www.w3.org/2000/svg">
<path d="M7.37542 15.5C7.12542 15.5 6.91709 15.4167 6.75042 15.25C6.58376 15.0833 6.50042 14.875 6.50042 14.625V8.825L0.900422 1.725C0.717088 1.45833 0.692088 1.18733 0.825421 0.912C0.958755 0.637334 1.18375 0.5 1.50042 0.5H14.5004C14.8171 0.5 15.0421 0.637334 15.1754 0.912C15.3088 1.18733 15.2838 1.45833 15.1004 1.725L9.50042 8.825V14.625C9.50042 14.875 9.41709 15.0833 9.25042 15.25C9.08375 15.4167 8.87542 15.5 8.62542 15.5H7.37542Z" fill="white"/>
</svg>
