<svg width="18" height="18" viewBox="0 0 18 18" fill="none" xmlns="http://www.w3.org/2000/svg">
<path fill-rule="evenodd" clip-rule="evenodd" d="M6.20154 10.2725C6.16551 10.3172 6.13306 10.3653 6.10474 10.4166L5.58 11.367L5.553 11.475C5.553 11.601 5.652 11.7 5.778 11.7H15.3C15.7971 11.7 16.2 12.1029 16.2 12.6C16.2 12.8634 16.0869 13.1003 15.9066 13.2649C15.7466 13.4109 15.5337 13.5 15.3 13.5H5.4C4.97346 13.5 4.58033 13.3496 4.27101 13.0993C3.86239 12.7686 3.6 12.2635 3.6 11.7C3.6 11.385 3.681 11.088 3.825 10.836L4.79287 9.07949C4.94804 8.79788 4.95834 8.45884 4.82056 8.16834L2.07104 2.37145C1.90551 2.02246 1.55379 1.8 1.16753 1.8H0.9C0.402944 1.8 0 1.39706 0 0.9C0 0.402944 0.402943 0 0.9 0H2.30806C2.69559 0 3.04824 0.223909 3.21308 0.574638L3.51892 1.22536C3.68376 1.57609 4.03641 1.8 4.42394 1.8H17.1C17.595 1.8 18 2.205 18 2.7C18 2.853 17.964 3.006 17.892 3.132L14.67 8.973C14.364 9.531 13.77 9.9 13.095 9.9H6.98016C6.70778 9.9 6.4515 10.0108 6.26598 10.2C6.24342 10.223 6.22191 10.2472 6.20154 10.2725ZM15.7071 14.9656C15.5879 14.8395 15.4508 14.7305 15.3 14.6428C15.0348 14.4885 14.7273 14.4 14.4 14.4C13.8699 14.4 13.394 14.6322 13.0662 15C12.7819 15.3191 12.609 15.7401 12.609 16.2C12.609 17.19 13.41 18 14.4 18C15.39 18 16.2 17.19 16.2 16.2C16.2 15.7234 16.0123 15.2885 15.7071 14.9656ZM6.73877 15C6.4086 14.6322 5.9301 14.4 5.4 14.4C4.97292 14.4 4.58101 14.5507 4.27341 14.8016C3.86797 15.1324 3.609 15.6371 3.609 16.2C3.609 17.19 4.41 18 5.4 18C6.39 18 7.2 17.19 7.2 16.2C7.2 15.7401 7.0252 15.3191 6.73877 15ZM6.41356 8.46499C6.3966 8.14359 6.31754 7.82429 6.17583 7.52552L4.1653 3.28663C4.25062 3.29548 4.33693 3.3 4.42394 3.3H16.0862L13.3566 8.24849L13.3548 8.25175C13.3077 8.33768 13.2131 8.4 13.095 8.4H6.98016C6.78701 8.4 6.59711 8.42228 6.41356 8.46499ZM5.4 15.9C5.2482 15.9 5.109 16.0286 5.109 16.2C5.109 16.3714 5.2482 16.5 5.4 16.5C5.56157 16.5 5.7 16.3616 5.7 16.2C5.7 16.0384 5.56157 15.9 5.4 15.9ZM14.4 15.9C14.2482 15.9 14.109 16.0286 14.109 16.2C14.109 16.3714 14.2482 16.5 14.4 16.5C14.5616 16.5 14.7 16.3616 14.7 16.2C14.7 16.0384 14.5616 15.9 14.4 15.9Z" fill="#333333"/>
</svg>
