<svg width="18" height="18" viewBox="0 0 18 18" fill="none" xmlns="http://www.w3.org/2000/svg">
<path d="M11.7042 12.6666C11.9699 12.9324 12.4009 12.9324 12.6667 12.6666C12.9324 12.4008 12.9324 11.9699 12.6667 11.7041L9.80866 8.84613C9.73108 8.76855 9.68749 8.66332 9.68749 8.5536V5.10413C9.68749 4.72443 9.37969 4.41663 8.99999 4.41663C8.62029 4.41663 8.31249 4.72443 8.31249 5.10413V9.08511C8.31249 9.20667 8.36078 9.32325 8.44673 9.4092L11.7042 12.6666ZM8.99999 17.7083C7.79305 17.7083 6.65882 17.4791 5.59732 17.0208C4.53521 16.5625 3.61457 15.9437 2.83541 15.1645C2.05624 14.3854 1.43749 13.4647 0.979157 12.4026C0.520823 11.3411 0.291656 10.2069 0.291656 8.99996C0.291656 7.79302 0.520823 6.65849 0.979157 5.59638C1.43749 4.53488 2.05624 3.61454 2.83541 2.83538C3.61457 2.05621 4.53521 1.43746 5.59732 0.979126C6.65882 0.520793 7.79305 0.291626 8.99999 0.291626C10.2069 0.291626 11.3415 0.520793 12.4036 0.979126C13.4651 1.43746 14.3854 2.05621 15.1646 2.83538C15.9437 3.61454 16.5625 4.53488 17.0208 5.59638C17.4792 6.65849 17.7083 7.79302 17.7083 8.99996C17.7083 10.2069 17.4792 11.3411 17.0208 12.4026C16.5625 13.4647 15.9437 14.3854 15.1646 15.1645C14.3854 15.9437 13.4651 16.5625 12.4036 17.0208C11.3415 17.4791 10.2069 17.7083 8.99999 17.7083ZM8.99999 16.3333C11.0319 16.3333 12.7623 15.6192 14.1911 14.191C15.6192 12.7623 16.3333 11.0319 16.3333 8.99996C16.3333 6.96802 15.6192 5.23765 14.1911 3.80888C12.7623 2.38071 11.0319 1.66663 8.99999 1.66663C6.96805 1.66663 5.23799 2.38071 3.80982 3.80888C2.38105 5.23765 1.66666 6.96802 1.66666 8.99996C1.66666 11.0319 2.38105 12.7623 3.80982 14.191C5.23799 15.6192 6.96805 16.3333 8.99999 16.3333Z" fill="#EB5757"/>
</svg>
