<svg width="18" height="18" viewBox="0 0 18 18" fill="none" xmlns="http://www.w3.org/2000/svg">
<path d="M11.7042 12.6666C11.97 12.9324 12.4009 12.9324 12.6667 12.6666C12.9325 12.4008 12.9325 11.9699 12.6667 11.7041L9.80867 8.84613C9.73109 8.76855 9.68751 8.66332 9.68751 8.5536V5.10413C9.68751 4.72443 9.3797 4.41663 9.00001 4.41663C8.62031 4.41663 8.31251 4.72443 8.31251 5.10413V9.08511C8.31251 9.20667 8.36079 9.32325 8.44675 9.4092L11.7042 12.6666ZM9.00001 17.7083C7.79306 17.7083 6.65884 17.4791 5.59734 17.0208C4.53523 16.5625 3.61459 15.9437 2.83542 15.1645C2.05626 14.3854 1.43751 13.4647 0.979172 12.4026C0.520838 11.3411 0.291672 10.2069 0.291672 8.99996C0.291672 7.79302 0.520838 6.65849 0.979172 5.59638C1.43751 4.53488 2.05626 3.61454 2.83542 2.83538C3.61459 2.05621 4.53523 1.43746 5.59734 0.979126C6.65884 0.520793 7.79306 0.291626 9.00001 0.291626C10.207 0.291626 11.3415 0.520793 12.4036 0.979126C13.4651 1.43746 14.3854 2.05621 15.1646 2.83538C15.9438 3.61454 16.5625 4.53488 17.0208 5.59638C17.4792 6.65849 17.7083 7.79302 17.7083 8.99996C17.7083 10.2069 17.4792 11.3411 17.0208 12.4026C16.5625 13.4647 15.9438 14.3854 15.1646 15.1645C14.3854 15.9437 13.4651 16.5625 12.4036 17.0208C11.3415 17.4791 10.207 17.7083 9.00001 17.7083ZM9.00001 16.3333C11.032 16.3333 12.7623 15.6192 14.1911 14.191C15.6193 12.7623 16.3333 11.0319 16.3333 8.99996C16.3333 6.96802 15.6193 5.23765 14.1911 3.80888C12.7623 2.38071 11.032 1.66663 9.00001 1.66663C6.96806 1.66663 5.23801 2.38071 3.80984 3.80888C2.38106 5.23765 1.66667 6.96802 1.66667 8.99996C1.66667 11.0319 2.38106 12.7623 3.80984 14.191C5.23801 15.6192 6.96806 16.3333 9.00001 16.3333Z" fill="white"/>
</svg>
