<svg width="14" height="14" viewBox="0 0 14 14" fill="none" xmlns="http://www.w3.org/2000/svg">
<path d="M13.4792 13.48C13.2295 13.7297 12.8248 13.7301 12.5747 13.4809L8.81857 9.74458C8.38785 10.1035 7.89252 10.3835 7.33258 10.5845C6.77264 10.7855 6.19835 10.886 5.6097 10.886C4.13089 10.886 2.8818 10.3763 1.86243 9.35693C0.84306 8.33756 0.333374 7.08847 0.333374 5.60966C0.333374 4.14521 0.84306 2.89957 1.86243 1.87273C2.8818 0.846468 4.13089 0.333336 5.6097 0.333336C7.07415 0.333336 8.31606 0.843022 9.33543 1.86239C10.3548 2.88176 10.8645 4.13085 10.8645 5.60966C10.8645 6.22703 10.764 6.81568 10.563 7.37561C10.362 7.93555 10.0892 8.4237 9.74462 8.84006L13.4792 12.5746C13.7292 12.8247 13.7292 13.23 13.4792 13.48ZM5.6097 9.59382C6.71522 9.59382 7.65218 9.20618 8.42058 8.43088C9.18841 7.65558 9.57233 6.71518 9.57233 5.60966C9.57233 4.50415 9.18841 3.56374 8.42058 2.78844C7.65218 2.01315 6.71522 1.6255 5.6097 1.6255C4.48983 1.6255 3.54597 2.01315 2.77814 2.78844C2.00974 3.56374 1.62554 4.50415 1.62554 5.60966C1.62554 6.71518 2.00974 7.65558 2.77814 8.43088C3.54597 9.20618 4.48983 9.59382 5.6097 9.59382Z" fill="#333333"/>
</svg>
