<?xml version="1.0" encoding="utf-8"?>
<!-- Generator: Adobe Illustrator 24.2.1, SVG Export Plug-In . SVG Version: 6.00 Build 0)  -->
<svg version="1.1" id="Layer_1" xmlns="http://www.w3.org/2000/svg" xmlns:xlink="http://www.w3.org/1999/xlink" x="0px" y="0px"
	 viewBox="0 0 184 24" style="enable-background:new 0 0 184 24;" xml:space="preserve">
<style type="text/css">
	.st0{fill:#D7282F;}
	.st1{fill:#0055B8;}
	.st2{fill-rule:evenodd;clip-rule:evenodd;fill:#FFFFFF;}
	.st3{fill:#FFFFFF;}
</style>
<path class="st0" d="M184,12c0,3.32-1.34,6.32-3.51,8.49S175.32,24,172,24H12C5.37,24,0,18.63,0,12c0-3.32,1.34-6.32,3.51-8.49
	C5.68,1.34,8.68,0,12,0h160C178.63,0,184,5.37,184,12z"/>
<path class="st1" d="M31.52,0v24H12C5.37,24,0,18.63,0,12c0-3.32,1.34-6.32,3.51-8.49C5.68,1.34,8.68,0,12,0H31.52z"/>
<g>
	<path id="XMLID_204_" class="st2" d="M10.43,10.75h1.77c3.32,0,6.65,0,9.97-0.02c0.19,0,0.4,0.23,0.35,0.41l-1.14,4.23
		c-0.09,0.32-0.42,0.65-0.75,0.65c-3.32,0-6.65,0-9.98,0c-0.39,0-0.63-0.33-0.7-0.71l-0.13-0.67c-0.09-0.47,0.15-0.69,0.65-0.69
		h9.26l0.27-1.31h-7.95H9.63c-0.28,0-0.52-0.19-0.61-0.44L7.71,8.57c-0.2-0.56,0.12-1.32,0.71-1.32H23.7l-0.85,2.96h-1.92l0.14-0.67
		H10.08L10.43,10.75z"/>
	<path id="XMLID_203_" class="st2" d="M23.8,6.96l-1.83-0.04l0.67-2.66h4.01c0.76,0,0.68,2.08-0.02,2.08h-2.48L23.8,6.96z"/>
	<path id="XMLID_193_" class="st2" d="M18.54,17.11c0.73,0,1.32,0.59,1.32,1.32c0,0.72-0.59,1.32-1.32,1.32s-1.32-0.6-1.32-1.32
		C17.22,17.7,17.81,17.11,18.54,17.11L18.54,17.11z"/>
	<path id="XMLID_192_" class="st2" d="M13.15,17.11c0.72,0,1.32,0.59,1.32,1.32c0,0.72-0.6,1.32-1.32,1.32
		c-0.73,0-1.32-0.6-1.32-1.32C11.83,17.7,12.41,17.11,13.15,17.11L13.15,17.11z"/>
</g>
<g>
	<path class="st3" d="M45.37,13.39c0,0.4-0.08,0.76-0.24,1.08c-0.16,0.32-0.38,0.6-0.66,0.83s-0.62,0.41-1.01,0.53
		c-0.39,0.12-0.82,0.19-1.29,0.19c-0.41,0-0.86-0.05-1.34-0.15c-0.48-0.1-0.92-0.24-1.29-0.43l0.43-1.57
		c0.35,0.17,0.71,0.3,1.08,0.4s0.72,0.14,1.05,0.14c0.14,0,0.29-0.01,0.43-0.04c0.14-0.03,0.27-0.07,0.38-0.13
		c0.11-0.06,0.21-0.15,0.27-0.25c0.07-0.1,0.1-0.23,0.1-0.38c0-0.21-0.08-0.41-0.26-0.59c-0.17-0.18-0.46-0.4-0.87-0.68
		c-0.26-0.17-0.49-0.35-0.71-0.53c-0.22-0.18-0.41-0.38-0.57-0.59c-0.16-0.21-0.29-0.44-0.38-0.68c-0.09-0.24-0.13-0.51-0.13-0.81
		c0-0.41,0.07-0.77,0.2-1.08s0.33-0.58,0.59-0.79c0.25-0.21,0.56-0.37,0.92-0.48c0.36-0.11,0.76-0.17,1.2-0.17
		c0.89,0,1.72,0.22,2.48,0.66L45.35,9.4c-0.28-0.16-0.59-0.3-0.93-0.41c-0.34-0.11-0.67-0.17-0.98-0.17c-0.29,0-0.53,0.04-0.72,0.13
		c-0.19,0.09-0.29,0.27-0.29,0.54c0,0.18,0.07,0.34,0.21,0.49c0.14,0.15,0.38,0.35,0.73,0.62c0.25,0.2,0.5,0.39,0.75,0.58
		c0.24,0.19,0.46,0.4,0.64,0.62c0.18,0.22,0.33,0.46,0.45,0.72C45.32,12.79,45.37,13.08,45.37,13.39z"/>
	<path class="st3" d="M51.18,15.87l0.61-3.48h-2.9l-0.61,3.48h-2.04l1.49-8.5h2.04l-0.59,3.36h2.9l0.59-3.36h2.04l-1.49,8.5H51.18z"
		/>
	<path class="st3" d="M63.97,10.8c0,0.64-0.11,1.27-0.33,1.9c-0.22,0.63-0.54,1.19-0.95,1.68c-0.41,0.49-0.92,0.89-1.52,1.19
		c-0.6,0.3-1.28,0.45-2.04,0.45c-0.64,0-1.19-0.1-1.67-0.29c-0.47-0.2-0.86-0.46-1.17-0.79s-0.54-0.71-0.69-1.14
		c-0.15-0.43-0.22-0.87-0.22-1.33c0-0.74,0.12-1.43,0.35-2.07s0.56-1.19,0.98-1.67s0.93-0.84,1.52-1.11c0.59-0.27,1.25-0.4,1.97-0.4
		c0.64,0,1.19,0.09,1.67,0.28c0.47,0.19,0.86,0.44,1.17,0.77s0.54,0.71,0.7,1.14C63.89,9.85,63.97,10.31,63.97,10.8z M59.25,14.42
		c0.43,0,0.82-0.1,1.15-0.31c0.33-0.21,0.61-0.48,0.84-0.82c0.23-0.34,0.4-0.71,0.52-1.13c0.12-0.42,0.18-0.83,0.18-1.25
		c0-0.27-0.03-0.53-0.1-0.79c-0.07-0.25-0.18-0.47-0.33-0.66S61.16,9.11,60.93,9c-0.23-0.12-0.52-0.17-0.85-0.17
		c-0.43,0-0.81,0.11-1.14,0.32c-0.33,0.21-0.6,0.49-0.83,0.82c-0.23,0.34-0.4,0.71-0.51,1.13c-0.12,0.42-0.17,0.83-0.17,1.24
		c0,0.27,0.03,0.53,0.1,0.78c0.07,0.25,0.17,0.47,0.32,0.66c0.15,0.19,0.33,0.34,0.56,0.46C58.63,14.36,58.92,14.42,59.25,14.42z"/>
	<path class="st3" d="M71.76,9.78c0,0.54-0.11,1-0.32,1.39c-0.21,0.39-0.5,0.72-0.87,0.98c-0.37,0.26-0.79,0.46-1.26,0.59
		c-0.48,0.13-0.97,0.19-1.49,0.19H67.2l-0.52,2.94h-2.04l1.49-8.5h2.81c0.44,0,0.84,0.06,1.19,0.18s0.65,0.29,0.89,0.5
		c0.24,0.21,0.42,0.47,0.55,0.77C71.69,9.11,71.76,9.43,71.76,9.78z M67.89,11.38c0.24,0,0.47-0.03,0.69-0.08
		c0.22-0.05,0.42-0.13,0.59-0.25c0.17-0.11,0.3-0.26,0.4-0.44c0.1-0.18,0.15-0.41,0.15-0.66c0-0.31-0.1-0.56-0.29-0.74
		s-0.45-0.28-0.77-0.28H67.9l-0.43,2.45H67.89z"/>
	<path class="st3" d="M80.46,15.87l-2.58-5.19l-0.92,5.19h-2.02l1.49-8.5h2.02l2.59,5.19l0.91-5.19h2l-1.49,8.5H80.46z"/>
	<path class="st3" d="M93.21,10.8c0,0.64-0.11,1.27-0.33,1.9c-0.22,0.63-0.54,1.19-0.95,1.68c-0.41,0.49-0.92,0.89-1.52,1.19
		c-0.6,0.3-1.28,0.45-2.04,0.45c-0.64,0-1.19-0.1-1.67-0.29c-0.47-0.2-0.86-0.46-1.17-0.79s-0.54-0.71-0.69-1.14
		c-0.15-0.43-0.22-0.87-0.22-1.33c0-0.74,0.12-1.43,0.35-2.07s0.56-1.19,0.98-1.67s0.93-0.84,1.52-1.11c0.59-0.27,1.25-0.4,1.97-0.4
		c0.64,0,1.19,0.09,1.67,0.28c0.47,0.19,0.86,0.44,1.17,0.77s0.54,0.71,0.7,1.14C93.13,9.85,93.21,10.31,93.21,10.8z M88.49,14.42
		c0.43,0,0.82-0.1,1.15-0.31c0.33-0.21,0.61-0.48,0.84-0.82c0.23-0.34,0.4-0.71,0.52-1.13c0.12-0.42,0.18-0.83,0.18-1.25
		c0-0.27-0.03-0.53-0.1-0.79s-0.18-0.47-0.33-0.66S90.4,9.11,90.17,9c-0.23-0.12-0.52-0.17-0.85-0.17c-0.43,0-0.81,0.11-1.14,0.32
		c-0.33,0.21-0.6,0.49-0.83,0.82c-0.23,0.34-0.4,0.71-0.51,1.13c-0.12,0.42-0.17,0.83-0.17,1.24c0,0.27,0.03,0.53,0.1,0.78
		c0.07,0.25,0.17,0.47,0.32,0.66c0.15,0.19,0.33,0.34,0.56,0.46C87.88,14.36,88.16,14.42,88.49,14.42z"/>
	<path class="st3" d="M102.54,13.25l2.28-5.88h2.22l-3.78,8.5h-2.23l-0.63-6.31l-2.78,6.31h-2.23l-0.79-8.5h2.04L97,13.25l2.54-5.88
		h2.34L102.54,13.25z"/>
	<path class="st3" d="M105.94,17.01c0.17-0.2,0.32-0.43,0.45-0.67c0.13-0.24,0.24-0.5,0.33-0.76c0.09-0.26,0.17-0.53,0.23-0.79
		s0.1-0.52,0.13-0.78l1.98,0.22c-0.1,0.79-0.31,1.48-0.61,2.06c-0.31,0.58-0.74,1.12-1.3,1.6L105.94,17.01z"/>
	<path class="st3" d="M120.64,9.78c0,0.54-0.11,1-0.32,1.39c-0.21,0.39-0.5,0.72-0.87,0.98c-0.37,0.26-0.79,0.46-1.26,0.59
		c-0.48,0.13-0.97,0.19-1.49,0.19h-0.61l-0.52,2.94h-2.04l1.49-8.5h2.81c0.44,0,0.84,0.06,1.19,0.18c0.35,0.12,0.65,0.29,0.89,0.5
		c0.24,0.21,0.42,0.47,0.55,0.77C120.58,9.11,120.64,9.43,120.64,9.78z M116.77,11.38c0.24,0,0.47-0.03,0.69-0.08
		c0.22-0.05,0.42-0.13,0.59-0.25c0.17-0.11,0.3-0.26,0.4-0.44c0.1-0.18,0.15-0.41,0.15-0.66c0-0.31-0.1-0.56-0.29-0.74
		s-0.45-0.28-0.77-0.28h-0.75l-0.43,2.45H116.77z"/>
	<path class="st3" d="M126.46,14.21h-3.18l-0.82,1.66h-2.25l4.65-8.5h2.26l1.68,8.5h-2.09L126.46,14.21z M124.07,12.6h2.14
		l-0.49-3.43L124.07,12.6z"/>
	<path class="st3" d="M134.23,12.97l-0.51,2.9h-2.04l0.54-3.09l-1.71-5.41h2.16l0.88,3.65l2-3.65h2.31L134.23,12.97z"/>
	<path class="st3" d="M143.69,7.37l-1.21,6.89h2.9l-0.28,1.61h-4.94l1.49-8.5H143.69z"/>
	<path class="st3" d="M152.02,14.21h-3.18l-0.82,1.66h-2.25l4.65-8.5h2.26l1.68,8.5h-2.09L152.02,14.21z M149.64,12.6h2.14
		l-0.49-3.43L149.64,12.6z"/>
	<path class="st3" d="M162.59,7.37l-0.28,1.61h-2.09l-1.21,6.89h-2.04l1.21-6.89h-2.09l0.28-1.61H162.59z"/>
	<path class="st3" d="M163.82,7.37h5.11l-0.28,1.6h-3.06l-0.32,1.8h2.91l-0.28,1.6h-2.9l-0.34,1.91h3.1l-0.28,1.6h-5.14L163.82,7.37
		z"/>
	<path class="st3" d="M176.36,9.77c0,0.34-0.05,0.65-0.16,0.94c-0.11,0.29-0.26,0.54-0.45,0.77c-0.19,0.23-0.42,0.43-0.69,0.6
		c-0.27,0.17-0.56,0.31-0.88,0.43l2.2,3.36h-2.37l-1.85-3h-0.5l-0.52,3h-2.04l1.49-8.5h2.96c0.43,0,0.83,0.06,1.17,0.18
		s0.64,0.28,0.89,0.49c0.24,0.21,0.43,0.46,0.55,0.75C176.3,9.09,176.36,9.41,176.36,9.77z M172.42,11.3c0.25,0,0.5-0.02,0.73-0.07
		c0.23-0.05,0.44-0.13,0.61-0.24c0.17-0.11,0.32-0.26,0.42-0.44s0.16-0.4,0.16-0.67c0-0.35-0.1-0.6-0.31-0.74
		c-0.21-0.15-0.47-0.22-0.79-0.22h-0.87l-0.42,2.37H172.42z"/>
</g>
<rect x="31.52" y="-0.26" class="st3" width="0.88" height="24.53"/>
</svg>
