<?xml version="1.0" encoding="utf-8"?>
<!-- Generator: Adobe Illustrator 24.2.3, SVG Export Plug-In . SVG Version: 6.00 Build 0)  -->
<svg version="1.1" id="Layer_1" xmlns="http://www.w3.org/2000/svg" xmlns:xlink="http://www.w3.org/1999/xlink" x="0px" y="0px"
	 viewBox="0 0 260.9 129.5" style="enable-background:new 0 0 260.9 129.5;" xml:space="preserve">
<style type="text/css">
	.st0{fill:url(#SVGID_1_);}
	.st1{fill:#FFFFFF;}
	.st2{opacity:0.67;}
	.st3{fill-rule:evenodd;clip-rule:evenodd;fill:#AFB1B4;}
	.st4{fill-rule:evenodd;clip-rule:evenodd;fill:url(#SVGID_2_);}
	.st5{fill-rule:evenodd;clip-rule:evenodd;fill:#B82025;}
	.st6{fill-rule:evenodd;clip-rule:evenodd;fill:#E42F25;}
	.st7{fill:none;}
</style>
<radialGradient id="SVGID_1_" cx="130.45" cy="67.3" r="92.608" gradientTransform="matrix(1 0 0 -1 0 132)" gradientUnits="userSpaceOnUse">
	<stop  offset="1" style="stop-color:#004E84"/>
	<stop  offset="1" style="stop-color:#003870"/>
</radialGradient>
<path class="st0" d="M241.3,103.3H43.9C22.6,103.3,5.3,86,5.3,64.7l0,0c0-21.3,17.3-38.6,38.6-38.6h197.4c7.9,0,14.3,6.4,14.3,14.3
	V89C255.6,96.9,249.2,103.3,241.3,103.3z"/>
<circle class="st1" cx="43.9" cy="64.9" r="32.9"/>
<g>
	<g class="st2">
		<path class="st3" d="M27.2,64.9h4.2c7.9,0,15.9,0,23.8,0c0.5,0,1,0.6,0.8,1L53.4,76c-0.2,0.8-1,1.6-1.8,1.6H27.8
			c-0.9,0-1.5-0.8-1.7-1.7l-0.3-1.6c-0.2-1.1,0.4-1.7,1.5-1.7h22.1l0.6-3.1H31h-5.8c-0.7,0-1.2-0.5-1.5-1.1l-3.1-8.7
			c-0.5-1.3,0.3-3.1,1.7-3.1H59l-2,7.1h-4.6l0.3-1.6H26.4L27.2,64.9z"/>
		<path class="st3" d="M59.2,55.8l-4.4-0.1l1.6-6.4H66c1.8,0,1.6,5,0,5h-5.9L59.2,55.8z"/>
		<path class="st3" d="M46.6,80.1c1.8,0,3.2,1.4,3.2,3.1s-1.4,3.1-3.2,3.1s-3.2-1.4-3.2-3.1C43.5,81.5,44.9,80.1,46.6,80.1"/>
		<path class="st3" d="M33.7,80.1c1.7,0,3.2,1.4,3.2,3.1s-1.4,3.1-3.2,3.1s-3.2-1.4-3.2-3.1C30.6,81.5,32,80.1,33.7,80.1"/>
	</g>
	<g>
		
			<radialGradient id="SVGID_2_" cx="38.2747" cy="66.5358" r="15.4569" gradientTransform="matrix(1 0 0 -1 0 132)" gradientUnits="userSpaceOnUse">
			<stop  offset="1" style="stop-color:#004E84"/>
			<stop  offset="1" style="stop-color:#003870"/>
		</radialGradient>
		<path class="st4" d="M25.7,63.3H30c7.9,0,15.9,0,23.8,0c0.5,0,1,0.6,0.8,1l-2.7,10.1c-0.2,0.8-1,1.6-1.8,1.6H26.3
			c-0.9,0-1.5-0.8-1.7-1.7l-0.3-1.6c-0.2-1.1,0.4-1.7,1.5-1.7h22.1l0.6-3.1h-19h-5.8c-0.7,0-1.2-0.5-1.5-1.1l-3.1-8.7
			c-0.5-1.3,0.3-3.1,1.7-3.1h36.5l-2,7.1h-4.6l0.3-1.6H24.9L25.7,63.3z"/>
		<path class="st5" d="M57.7,54.3l-4.4-0.1l1.6-6.4h9.6c1.8,0,1.6,5,0,5h-5.9L57.7,54.3z"/>
		<path class="st6" d="M45.1,78.5c1.8,0,3.2,1.4,3.2,3.1s-1.4,3.1-3.2,3.1s-3.2-1.4-3.2-3.1C42,79.9,43.4,78.5,45.1,78.5"/>
		<path class="st6" d="M32.2,78.5c1.7,0,3.2,1.4,3.2,3.1s-1.4,3.1-3.2,3.1S29,83.3,29,81.6C29.1,79.9,30.5,78.5,32.2,78.5"/>
	</g>
</g>
<g>
	<g>
		<path class="st1" d="M94.6,43.8h6l2.8,13.4l2.8-13.4h5.4l-5,21.1h-6.1l-2.9-14.2l-2.9,14.2h-6.1l-5-21.1H89l2.8,13.4L94.6,43.8z"
			/>
		<path class="st1" d="M117.3,43.8h6.1l6.4,21.1h-5.4l-1-3.8h-6.1l-1,3.8h-5.4L117.3,43.8z M120.4,49.7l-1.9,7h3.8L120.4,49.7z"/>
		<path class="st1" d="M147.6,50.7c0,2.7-1.1,4.7-3.2,5.9l4,8.2h-5.6l-3.2-7.2h-1.8v7.2h-5.3v-21h7.6c2.2,0,4,0.6,5.4,1.8
			C146.9,46.9,147.6,48.5,147.6,50.7z M137.8,48.3v4.8h1.8c0.8,0,1.4-0.2,1.9-0.6c0.5-0.4,0.7-1,0.7-1.8s-0.2-1.3-0.7-1.8
			c-0.5-0.4-1.1-0.6-1.9-0.6C139.6,48.3,137.8,48.3,137.8,48.3z"/>
		<path class="st1" d="M166.6,50.7c0,2.7-1.1,4.7-3.2,5.9l4,8.2h-5.6l-3.2-7.2h-1.8v7.2h-5.3v-21h7.6c2.2,0,4,0.6,5.4,1.8
			C165.9,46.9,166.6,48.5,166.6,50.7z M156.8,48.3v4.8h1.8c0.8,0,1.4-0.2,1.9-0.6c0.5-0.4,0.7-1,0.7-1.8s-0.2-1.3-0.7-1.8
			c-0.5-0.4-1.1-0.6-1.9-0.6C158.6,48.3,156.8,48.3,156.8,48.3z"/>
		<path class="st1" d="M174.9,43.8h6.1l6.4,21.1H182l-1-3.8h-6.1l-1,3.8h-5.4L174.9,43.8z M178,49.7l-1.9,7h3.8L178,49.7z"/>
		<path class="st1" d="M201.1,55.9V43.8h5.2v21.1h-5.2l-5.7-12.1v12.1h-5.2V43.8h5.2L201.1,55.9z"/>
		<path class="st1" d="M209.3,48.5v-4.7h16.4v4.7h-5.6v16.4h-5.3V48.5H209.3z"/>
		<path class="st1" d="M238.8,56.9v8h-5.3v-8l-6.7-13.1h5.5l3.9,8l3.9-8h5.5L238.8,56.9z"/>
	</g>
	<g>
		<path class="st1" d="M108.1,70.8h5.3l4.7,16.2h-4.7l-0.6-2.6h-4.1l-0.6,2.6h-4.7L108.1,70.8z M110.7,75.9l-1.2,4.7h2.3L110.7,75.9
			z"/>
		<path class="st1" d="M119.4,82.4l4.5-0.6c0.2,1.1,0.7,1.6,1.7,1.6c0.4,0,0.7-0.1,1-0.3c0.3-0.2,0.4-0.5,0.4-0.9
			c0-0.8-0.5-1.3-1.6-1.5l-1-0.2c-3.3-0.6-5-2.3-5-5.2c0-1.4,0.5-2.6,1.6-3.5c1-0.9,2.4-1.4,4.2-1.4c1.6,0,2.9,0.4,4,1.3
			s1.7,2,1.9,3.3l-4.5,0.6c-0.2-0.9-0.6-1.4-1.3-1.4c-0.3,0-0.6,0.1-0.8,0.3c-0.2,0.2-0.3,0.5-0.3,0.8c0,0.8,0.5,1.2,1.6,1.4l1,0.2
			c3.3,0.6,5,2.3,5,5.2c0,1.4-0.5,2.6-1.6,3.6s-2.6,1.5-4.4,1.5c-1.7,0-3-0.4-4.1-1.3C120.3,85,119.6,83.9,119.4,82.4z"/>
		<path class="st1" d="M133.6,82.4l4.5-0.6c0.2,1.1,0.7,1.6,1.7,1.6c0.4,0,0.7-0.1,1-0.3c0.3-0.2,0.4-0.5,0.4-0.9
			c0-0.8-0.5-1.3-1.6-1.5l-1-0.2c-3.3-0.6-5-2.3-5-5.2c0-1.4,0.5-2.6,1.6-3.5c1-0.9,2.4-1.4,4.2-1.4c1.6,0,2.9,0.4,4,1.3
			s1.7,2,1.9,3.3l-4.5,0.6c-0.2-0.9-0.6-1.4-1.3-1.4c-0.3,0-0.6,0.1-0.8,0.3c-0.2,0.2-0.3,0.5-0.3,0.8c0,0.8,0.5,1.2,1.6,1.4l1,0.2
			c3.3,0.6,5,2.3,5,5.2c0,1.4-0.5,2.6-1.6,3.6s-2.6,1.5-4.4,1.5c-1.7,0-3-0.4-4.1-1.3C134.5,85,133.8,83.9,133.6,82.4z"/>
		<path class="st1" d="M153.1,70.8V87h-4.6V70.8H153.1z"/>
		<path class="st1" d="M156.1,82.4l4.5-0.6c0.2,1.1,0.7,1.6,1.7,1.6c0.4,0,0.7-0.1,1-0.3c0.3-0.2,0.4-0.5,0.4-0.9
			c0-0.8-0.5-1.3-1.6-1.5l-1-0.2c-3.3-0.6-5-2.3-5-5.2c0-1.4,0.5-2.6,1.6-3.5c1-0.9,2.4-1.4,4.2-1.4c1.6,0,2.9,0.4,4,1.3
			s1.7,2,1.9,3.3l-4.5,0.6c-0.2-0.9-0.6-1.4-1.3-1.4c-0.3,0-0.6,0.1-0.8,0.3c-0.2,0.2-0.3,0.5-0.3,0.8c0,0.8,0.5,1.2,1.6,1.4l1,0.2
			c3.3,0.6,5,2.3,5,5.2c0,1.4-0.5,2.6-1.6,3.6s-2.6,1.5-4.4,1.5c-1.7,0-3-0.4-4.1-1.3C157,85,156.4,83.9,156.1,82.4z"/>
		<path class="st1" d="M169.2,74.8v-4h12.9v4H178V87h-4.6V74.8H169.2z"/>
		<path class="st1" d="M186.1,70.8h5.3l4.7,16.2h-4.7l-0.6-2.6h-4.1l-0.6,2.6h-4.7L186.1,70.8z M188.7,75.9l-1.2,4.7h2.3L188.7,75.9
			z"/>
		<path class="st1" d="M210.7,87h-4.5l-3.6-8.5V87h-4.5V70.8h4.5l3.6,8.5v-8.5h4.5V87z"/>
		<path class="st1" d="M212.9,74.8v-4h12.8v4h-4.1V87H217V74.8H212.9z"/>
	</g>
</g>
<rect x="0.4" y="-0.3" class="st7" width="260.6" height="129.8"/>
</svg>
