<?xml version="1.0" encoding="utf-8"?>
<!-- Generator: Adobe Illustrator 26.2.1, SVG Export Plug-In . SVG Version: 6.00 Build 0)  -->
<svg version="1.1" id="Layer_1" xmlns="http://www.w3.org/2000/svg" xmlns:xlink="http://www.w3.org/1999/xlink" x="0px" y="0px"
	 viewBox="0 0 157.4 40" style="enable-background:new 0 0 157.4 40;" xml:space="preserve">
<style type="text/css">
	.st0{fill:#0055B8;}
	.st1{fill:#FFFFFF;}
</style>
<g>
	<rect x="0.4" y="0" class="st0" width="157" height="40"/>
	<g>
		<g>
			<g>
				<path class="st1" d="M52.2,34.7l16.6-17.9l-2.8-8.9h5.4l1.3,4.9L88.1,2.5l-14,14.3l3.1,9.5h-5.4l-1.5-5.5L52.2,34.7z"/>
				<path class="st1" d="M76.9,31.5l5.6-18.8h4l-0.1,1.1c0.4-0.3,0.9-0.6,1.5-0.9c0.6-0.3,1.3-0.4,2.1-0.4c1.3,0,2.2,0.4,2.9,1.1
					c0.4,0.4,0.6,0.9,0.8,1.4c0.2,0.5,0.2,1.1,0.2,1.6c0,0.5,0,1.1-0.1,1.6s-0.2,1-0.3,1.4c-0.3,1-0.7,2-1.3,2.8s-1.2,1.6-1.9,2.2
					c-0.7,0.6-1.5,1.1-2.4,1.5c-0.9,0.4-1.8,0.5-2.7,0.5c-0.8,0-1.5-0.1-2.1-0.4l-1.6,5.3L76.9,31.5L76.9,31.5z M85.3,23
					c0.8,0,1.6-0.3,2.2-0.9c0.6-0.6,1.1-1.5,1.4-2.6c0.4-1.2,0.4-2,0.2-2.7c-0.2-0.6-0.7-0.9-1.4-0.9c-0.4,0-0.7,0.1-1.1,0.3
					s-0.6,0.4-0.8,0.5l-1.8,6C84.5,22.9,84.9,23,85.3,23z"/>
				<path class="st1" d="M93.9,26.3l4.1-13.6h4.1l-0.1,1.4c0.4-0.4,0.9-0.7,1.6-1.1s1.3-0.5,2.1-0.5c0.3,0,0.6,0,0.9,0.1
					c0.3,0.1,0.5,0.1,0.7,0.2l-1.7,3.8c-0.5-0.1-1-0.2-1.4-0.2c-0.6,0-1.1,0.2-1.7,0.5s-1,0.6-1.4,1l-2.5,8.5H93.9z"/>
				<path class="st1" d="M110.7,26.6c-1,0-1.8-0.1-2.6-0.4c-0.7-0.3-1.3-0.7-1.8-1.3c-0.4-0.6-0.7-1.3-0.8-2.2s0.1-1.9,0.4-3.1
					c0.5-1.6,1.2-3,2.3-4.1c1-1.2,2.1-1.9,3.3-2.3c1.1-0.4,2.1-0.6,3.1-0.6c1.9,0,3.3,0.7,4,2c0.7,1.3,0.7,3.3-0.1,6h-8.4
					c-0.2,0.8-0.1,1.5,0.2,1.9c0.4,0.4,1,0.7,2,0.7c0.8,0,1.5-0.1,2.1-0.4c0.6-0.3,1.2-0.6,1.9-1.1l0.4,3.2
					c-0.4,0.3-0.8,0.6-1.4,0.8s-1.1,0.4-1.7,0.6c-0.6,0.2-1.1,0.3-1.7,0.3C111.5,26.6,111,26.6,110.7,26.6z M111,17.9h4
					c0.2-0.7,0.1-1.3-0.1-1.7s-0.6-0.7-1.1-0.7c-0.6,0-1.1,0.2-1.6,0.6C111.7,16.5,111.3,17.1,111,17.9z"/>
				<path class="st1" d="M124,26.6c-0.7,0-1.4-0.1-2-0.2c-0.6-0.1-1.1-0.2-1.6-0.4c-0.5-0.2-0.8-0.3-1.1-0.5
					c-0.3-0.2-0.5-0.4-0.7-0.5l2.4-3.1c0.2,0.2,0.4,0.4,0.7,0.6c0.3,0.2,0.6,0.4,1,0.5c0.7,0.3,1.5,0.4,2.3,0.4c0.4,0,0.8,0,1.2-0.2
					c0.4-0.1,0.6-0.3,0.7-0.7c0.1-0.5-0.4-0.9-1.7-1.2c-0.8-0.2-1.5-0.5-2.1-0.7s-1-0.6-1.3-0.9s-0.5-0.7-0.6-1.2c0-0.5,0-1,0.2-1.7
					c0.2-0.8,0.6-1.4,1.1-2c0.5-0.6,1.1-1,1.8-1.4c0.7-0.4,1.4-0.6,2.1-0.8s1.4-0.2,2.1-0.2c1.3,0,2.4,0.2,3.1,0.5s1.4,0.7,1.9,1.1
					l-2.3,2.9c-0.2-0.2-0.5-0.4-0.8-0.5c-0.3-0.2-0.6-0.3-0.9-0.4c-0.3-0.1-0.6-0.2-0.9-0.3c-0.3-0.1-0.6-0.1-0.9-0.1
					c-0.4,0-0.8,0.1-1.2,0.1c-0.4,0.1-0.6,0.3-0.7,0.7s0,0.6,0.4,0.8c0.4,0.2,0.9,0.4,1.6,0.5c1.2,0.4,2.2,0.8,2.8,1.3
					c0.3,0.2,0.5,0.5,0.6,0.8s0.2,0.5,0.3,0.8c0,0.3,0,0.5,0,0.8c0,0.3-0.1,0.5-0.2,0.8c-0.4,1.2-1,2.1-1.9,2.8
					c-0.8,0.6-1.7,1.1-2.7,1.3C125.8,26.4,124.9,26.6,124,26.6z"/>
				<path class="st1" d="M137.3,26.6c-0.7,0-1.4-0.1-2-0.2c-0.6-0.1-1.1-0.2-1.6-0.4c-0.5-0.2-0.8-0.3-1.1-0.5
					c-0.3-0.2-0.5-0.4-0.7-0.5l2.4-3.1c0.2,0.2,0.4,0.4,0.7,0.6c0.3,0.2,0.6,0.4,1,0.5c0.7,0.3,1.5,0.4,2.3,0.4c0.4,0,0.8,0,1.2-0.2
					c0.4-0.1,0.6-0.3,0.7-0.7c0.1-0.5-0.4-0.9-1.7-1.2c-0.8-0.2-1.5-0.5-2.1-0.7s-1-0.6-1.3-0.9s-0.5-0.7-0.6-1.2c0-0.5,0-1,0.2-1.7
					c0.2-0.8,0.6-1.4,1.1-2c0.5-0.6,1.1-1,1.8-1.4c0.7-0.4,1.4-0.6,2.1-0.8s1.4-0.2,2.1-0.2c1.3,0,2.4,0.2,3.1,0.5s1.4,0.7,1.9,1.1
					l-2.3,2.9c-0.2-0.2-0.5-0.4-0.8-0.5c-0.3-0.2-0.6-0.3-0.9-0.4c-0.3-0.1-0.6-0.2-0.9-0.3c-0.3-0.1-0.6-0.1-0.9-0.1
					c-0.4,0-0.8,0.1-1.2,0.1s-0.6,0.3-0.7,0.7s0,0.6,0.4,0.8c0.4,0.2,0.9,0.4,1.6,0.5c1.2,0.4,2.2,0.8,2.8,1.3
					c0.3,0.2,0.5,0.5,0.6,0.8s0.2,0.5,0.3,0.8c0,0.3,0,0.5,0,0.8c0,0.3-0.1,0.5-0.2,0.8c-0.4,1.2-1,2.1-1.9,2.8
					c-0.8,0.6-1.7,1.1-2.7,1.3C139.1,26.4,138.2,26.6,137.3,26.6z"/>
			</g>
			<g>
				<path class="st1" d="M82.6,37.5l2.3-8.6h2.8c0.4,0,0.7,0,1.1,0.1s0.7,0.2,0.9,0.3c0.5,0.2,0.8,0.6,1,1.1
					c0.1,0.3,0.2,0.5,0.2,0.8c0,0.2,0.1,0.5,0.1,0.7s0,0.5-0.1,0.7s-0.1,0.4-0.1,0.5c-0.2,0.9-0.6,1.6-1.2,2.3s-1.2,1.2-2,1.6
					c-0.3,0.1-0.7,0.2-1,0.3c-0.4,0.1-0.7,0.1-1.1,0.1H82.6z M85.3,35.5h0.6c0.5,0,0.9-0.1,1.3-0.3c0.3-0.2,0.6-0.5,0.9-0.8
					c0.2-0.3,0.4-0.7,0.5-1.2s0.1-0.8,0.1-1.2c-0.1-0.3-0.2-0.6-0.4-0.8c-0.1-0.1-0.3-0.2-0.5-0.3c-0.2-0.1-0.4-0.1-0.6-0.1h-0.6
					L85.3,35.5z"/>
				<path class="st1" d="M91.1,37.5l2.3-8.6h5.8l-0.5,2h-3.6l-0.4,1.4h3l-0.5,1.8h-3l-0.4,1.4h3.9l-0.5,2H91.1z"/>
				<path class="st1" d="M98.6,37.5l2.3-8.6h2.2l-1.8,6.6h3.7l-0.5,2H98.6z"/>
				<path class="st1" d="M105.9,37.5l2.3-8.6h2.2l-2.3,8.6H105.9z"/>
				<path class="st1" d="M112.4,37.5l-1-8.6h2.5l0.3,5.5l3.2-5.5h2.3l-5.4,8.6H112.4z"/>
				<path class="st1" d="M118.5,37.5l2.3-8.6h5.8l-0.5,2h-3.6l-0.4,1.4h3l-0.5,1.8h-3l-0.4,1.4h3.9l-0.5,2H118.5z"/>
				<path class="st1" d="M126,37.5l2.3-8.6h3.4c0.7,0,1.2,0.1,1.6,0.4c0.4,0.3,0.7,0.6,0.7,1c0.1,0.4,0.1,0.8-0.1,1.3
					c-0.1,0.6-0.4,1-0.8,1.4c-0.4,0.3-0.8,0.6-1.2,0.8c0.3,0.1,0.5,0.3,0.6,0.5c0.1,0.2,0.1,0.6,0.1,1l0,2.3h-2.2l0-1.9
					c0-0.4,0-0.7-0.2-0.9s-0.4-0.2-0.6-0.2H129l-0.8,3H126z M129.5,32.7h0.8c0.4,0,0.8-0.1,1-0.2s0.4-0.4,0.5-0.7
					c0.1-0.3,0.1-0.6-0.1-0.7c-0.1-0.2-0.4-0.2-0.9-0.2H130L129.5,32.7z"/>
				<path class="st1" d="M135.8,37.5l0.9-3.4l-1.5-5.3h2.5l0.7,3l2.3-3h2.5l-4.3,5.3l-0.9,3.4H135.8z"/>
			</g>
		</g>
		<g>
			<path class="st1" d="M24.2,30.4c1.4,0,2.9,0,4.3,0c0.6,0,1,0.4,1,1.1c0,0.7-0.3,1.2-1,1.2c-2.9,0-5.8,0-8.7,0
				c-0.5,0-0.9-0.3-0.9-0.9c-0.1-0.8,0.2-1.4,0.9-1.5C21.2,30.4,22.7,30.4,24.2,30.4z"/>
			<g>
				<path class="st1" d="M40.3,11.5c-1.9-1-3.9-1.5-6.1-1.6c0,0.3,0,0.5,0,0.7c0,0.1-0.2,0.2-0.2,0.3c-0.1-0.1-0.2-0.2-0.2-0.3
					c0-0.2,0-0.4,0-0.7c-2.2,0.1-4.1,0.6-6,1.6c0.1,0.3,0.3,0.5,0.4,0.7c0,0.1,0,0.2-0.1,0.3c-0.1,0-0.3,0-0.3-0.1
					c-0.1-0.2-0.2-0.4-0.4-0.7c-1.8,1.1-3.2,2.6-4.3,4.4c0.2,0.1,0.4,0.2,0.6,0.4c0.1,0.1,0.1,0.2,0.2,0.4c-0.1,0-0.3,0.1-0.4,0
					c-0.2-0.1-0.4-0.2-0.6-0.4c-1,1.8-1.5,3.8-1.6,5.8c-0.5,0-1.1,0-1.6,0c0.1-3.8,1.6-7.1,4.2-9.8c-0.1-0.1-0.1-0.1-0.1-0.2
					c-0.3-0.4-0.7-0.8-1-1.3c-0.4,0.2-0.6,0-0.9-0.3c-0.8-1-0.8-0.8,0.2-1.6c0.5-0.4,1-0.8,1.4-1.1c0.2-0.2,0.5-0.2,0.7,0.1
					c0.2,0.3,0.4,0.5,0.6,0.8c0.1,0.1,0.2,0.2,0.1,0.3c-0.3,0.5,0.1,0.7,0.3,1c0.2,0.3,0.4,0.5,0.6,0.7c1.1-0.6,2.2-1.2,3.3-1.6
					c1.1-0.4,2.3-0.7,3.5-1c0-0.6,0-1.3,0-2.1c-0.6,0-0.6-0.4-0.6-0.9c0-0.6,0-1.1,0-1.7c0-0.4,0.1-0.5,0.5-0.5c1.2,0,2.3,0,3.5,0
					c0.4,0,0.5,0.2,0.5,0.5c0,0.6,0,1.2,0,1.8c0,0.4-0.1,0.8-0.6,0.8c0,0.7,0,1.4,0,2.2c2.4,0.3,4.7,1.1,6.8,2.5
					c0.4-0.4,0.7-0.9,1.1-1.3c-0.3-0.3-0.1-0.6,0.1-0.9c0.9-1,0.6-1,1.7-0.1c0.4,0.4,0.9,0.7,1.3,1.1c0.3,0.2,0.4,0.5,0.1,0.8
					c-0.2,0.2-0.4,0.4-0.6,0.7c-0.1,0.1-0.2,0.2-0.3,0.2c-0.5-0.2-0.6,0.2-0.9,0.5c-0.2,0.2-0.4,0.5-0.6,0.7
					c0.1,0.1,0.2,0.2,0.3,0.4c4.4,4.6,5.2,11.5,2.1,17.1c-0.2,0.3-0.4,0.4-0.7,0.4c-0.4,0-0.9,0-1.4,0c0.2-0.3,0.3-0.5,0.4-0.7
					c-0.2-0.1-0.4-0.2-0.6-0.4c-0.1-0.1-0.1-0.2-0.2-0.4c0.1,0,0.3-0.1,0.5,0c0.2,0.1,0.4,0.2,0.6,0.3c1.1-1.9,1.6-3.9,1.6-6.1
					c-0.2,0-0.4,0-0.6,0c-0.1,0-0.3-0.1-0.4-0.2c0.1-0.1,0.3-0.2,0.4-0.2c0.2,0,0.4,0,0.6,0c0-2.2-0.6-4.2-1.6-6.1
					c-0.2,0.1-0.4,0.3-0.6,0.3c-0.1,0-0.3,0-0.4,0c0.1-0.1,0.1-0.3,0.2-0.4c0.2-0.1,0.4-0.2,0.6-0.4c-1.1-1.9-2.6-3.3-4.5-4.4
					c-0.1,0.2-0.2,0.4-0.3,0.5c-0.1,0.1-0.3,0.2-0.4,0.3c0-0.2,0-0.4,0.1-0.6C40,11.9,40.1,11.7,40.3,11.5z"/>
				<path class="st1" d="M23.9,29.5c0.3-1.3,0.6-2.6,0.8-3.9c0-0.1,0.1-0.3,0.1-0.4c0.1-0.7,0.3-0.8,1-0.8c1.4,0,2.9,0,4.4,0
					c2.2,0,4.4,0,6.6,0c0.9,0,0.9,0.1,0.8,0.9c-0.7,3-1.3,6-2,9.1c-0.1,0.5-0.4,0.8-0.9,0.8c-3.7,0-7.4,0-11.2,0
					c-0.4,0-0.7,0-0.7-0.5c0-0.7,0.2-1,0.7-1c1.6,0,3.2,0,4.7,0c1.1,0,2-0.8,2.1-1.8c0.1-1-0.5-2-1.4-2.2c-0.3-0.1-0.6-0.1-0.9-0.1
					C26.7,29.5,25.3,29.5,23.9,29.5z"/>
				<path class="st1" d="M17.6,26.4c1.6,0,3.3,0,4.9,0c0.5,0,0.9,0.4,1,0.9c0.1,0.5-0.1,1.1-0.5,1.3c-0.1,0.1-0.3,0.1-0.5,0.1
					c-3.3,0-6.7,0-10,0c-0.4,0-0.7-0.2-0.9-0.7c-0.1-0.4-0.2-0.9,0.1-1.2c0.2-0.2,0.6-0.4,0.9-0.4C14.3,26.3,15.9,26.4,17.6,26.4z"
					/>
				<path class="st1" d="M9.9,30.4c1.3,0,2.7,0,4,0c0.6,0,1,0.4,1,1.2c0,0.7-0.4,1.2-1,1.2c-2.7,0-5.4,0-8.1,0c-0.6,0-1-0.5-1-1.2
					c0-0.7,0.4-1.1,1-1.1C7.2,30.4,8.6,30.4,9.9,30.4z"/>
				<path class="st1" d="M15,34.4c1.5,0,3,0,4.5,0c0.8,0,1.3,0.4,1.4,1.1c0,0.7-0.5,1.2-1.3,1.2c-3.1,0-6.2,0-9.3,0
					c-0.7,0-1.2-0.6-1.2-1.2c0-0.7,0.5-1.1,1.2-1.1C11.9,34.4,13.4,34.4,15,34.4z"/>
				<path class="st1" d="M34,14.2c0.1,2.7,0.3,5.4,0.5,8.2c2.7,0.1,5.3,0.3,8,0.5c0,0-6.1,0.4-8.2,0.5c-0.6,0-0.8-0.1-0.7-0.8
					C33.6,19.8,33.8,17,34,14.2C33.9,14.2,33.9,14.2,34,14.2z"/>
			</g>
		</g>
	</g>
</g>
</svg>
