<?xml version="1.0" encoding="utf-8"?>
<!-- Generator: Adobe Illustrator 26.2.1, SVG Export Plug-In . SVG Version: 6.00 Build 0)  -->
<svg version="1.1" id="Layer_1" xmlns="http://www.w3.org/2000/svg" xmlns:xlink="http://www.w3.org/1999/xlink" x="0px" y="0px"
	 viewBox="0 0 300.67 40" style="enable-background:new 0 0 300.67 40;" xml:space="preserve">
<style type="text/css">
	.st0{fill:#D7282F;}
	.st1{fill:#0055B8;}
	.st2{fill:#FFFFFF;}
</style>
<g>
	<rect class="st0" width="301" height="40"/>
	<rect x="144" class="st1" width="157" height="40"/>
	<g>
		<g>
			<g>
				<path class="st2" d="M22.46,37c-1.66,0-3.21-0.29-4.64-0.88c-1.43-0.59-2.68-1.45-3.74-2.59c-1.06-1.14-1.9-2.53-2.52-4.18
					c-0.62-1.64-0.93-3.54-0.93-5.69c0-2.57,0.29-4.92,0.88-7.03c0.29-1.07,0.63-2.01,1-2.81c0.37-0.8,0.78-1.51,1.22-2.15
					c0.44-0.64,0.9-1.2,1.37-1.69c0.47-0.49,0.95-0.96,1.44-1.42c1.14-1.17,2.62-2.18,4.45-3.03c1.86-0.85,3.54-1.47,5.06-1.86
					c1.51-0.39,2.71-0.62,3.59-0.68l1.95,6.25c-2.08,0.1-4.02,0.6-5.81,1.51c-1.76,0.88-3.04,1.78-3.83,2.69
					c-0.8,0.91-1.29,1.73-1.49,2.44c0.52-0.26,1.16-0.49,1.91-0.68c0.75-0.2,1.56-0.29,2.44-0.29c1.99,0,3.73,0.55,5.23,1.66
					c0.78,0.52,1.43,1.18,1.95,1.98c0.52,0.8,0.94,1.62,1.25,2.47c0.31,0.85,0.53,1.69,0.66,2.52c0.13,0.83,0.2,1.56,0.2,2.17
					c0,2.41-0.57,4.53-1.71,6.35c-0.65,1.04-1.41,1.88-2.27,2.52c-0.86,0.64-1.75,1.13-2.66,1.49c-0.91,0.36-1.8,0.6-2.66,0.73
					C23.92,36.93,23.14,37,22.46,37z M22.41,29.92c1.04,0,1.87-0.37,2.49-1.12c0.62-0.75,0.93-1.81,0.93-3.18
					c0-1.37-0.33-2.46-0.98-3.27c-0.65-0.81-1.47-1.22-2.44-1.22c-0.75,0-1.39,0.09-1.93,0.27c-0.54,0.18-0.97,0.37-1.29,0.56
					c-0.23,0.72-0.34,1.6-0.34,2.64c0,1.92,0.36,3.29,1.07,4.1C20.63,29.51,21.46,29.92,22.41,29.92z"/>
				<path class="st2" d="M48.89,37c-2.22,0-4.1-0.43-5.64-1.29c-1.55-0.86-2.82-2.05-3.81-3.57c-0.99-1.51-1.72-3.3-2.17-5.35
					c-0.46-2.05-0.68-4.25-0.68-6.59c0-3.74,0.54-6.94,1.61-9.57c0.52-1.47,1.22-2.68,2.1-3.64c0.88-0.96,1.82-1.71,2.83-2.25
					c1.01-0.54,2.02-0.9,3.03-1.1c1.01-0.2,1.92-0.28,2.74-0.24c3,0,5.5,0.91,7.52,2.74c1.99,1.79,3.27,4.01,3.86,6.64
					c0.59,2.61,0.88,5.08,0.88,7.43c0,3.81-0.55,7.02-1.66,9.62c-0.59,1.5-1.31,2.72-2.17,3.66c-0.86,0.94-1.78,1.68-2.76,2.2
					c-0.98,0.52-1.96,0.87-2.96,1.05C50.6,36.91,49.7,37,48.89,37z M48.89,29.92c1.37,0,2.35-0.83,2.96-2.49
					c0.6-1.66,0.9-4.07,0.9-7.23c0-3.16-0.3-5.57-0.9-7.23c-0.6-1.66-1.59-2.49-2.96-2.49s-2.35,0.83-2.96,2.49
					c-0.6,1.66-0.9,4.07-0.9,7.23c0,3.16,0.3,5.57,0.9,7.23C46.53,29.09,47.52,29.92,48.89,29.92z"/>
			</g>
			<g>
				<path class="st2" d="M73.41,23.94h-2.04l-2.14-4.93l-0.36,6.74h-2.88l0.66-11.5h3.19l2.55,6.05l2.55-6.05h3.19l0.66,11.5H75.9
					l-0.36-6.74L73.41,23.94z"/>
				<path class="st2" d="M84.07,14.25v11.5h-2.89v-11.5H84.07z"/>
				<path class="st2" d="M92.71,20.85v-6.61h2.84v11.5h-2.84l-3.14-6.61v6.61h-2.84v-11.5h2.84L92.71,20.85z"/>
				<path class="st2" d="M106.09,24.74c-0.8,0.8-1.94,1.21-3.42,1.21c-1.48,0-2.62-0.4-3.42-1.21c-0.8-0.81-1.2-1.91-1.2-3.31v-7.18
					h2.89v7.2c0,0.6,0.15,1.08,0.44,1.43c0.3,0.35,0.72,0.53,1.28,0.53c0.56,0,0.99-0.17,1.28-0.53s0.44-0.83,0.44-1.43v-7.2h2.89
					v7.18C107.29,22.83,106.89,23.94,106.09,24.74z"/>
				<path class="st2" d="M108.83,16.8v-2.55h8.97v2.55h-3.04v8.96h-2.89V16.8H108.83z"/>
				<path class="st2" d="M119.41,25.75v-11.5h7.49v2.55h-4.6v1.87h4.01v2.48h-4.01v2.05h4.68v2.55H119.41z"/>
				<path class="st2" d="M133.04,21.18l-0.82-0.15c-1.21-0.22-2.08-0.62-2.64-1.22c-0.55-0.59-0.83-1.39-0.83-2.38
					c0-0.97,0.37-1.78,1.1-2.42c0.73-0.64,1.7-0.96,2.89-0.96c1.1,0,2.02,0.3,2.79,0.9c0.76,0.6,1.19,1.36,1.29,2.27l-2.88,0.38
					c-0.14-0.75-0.56-1.12-1.25-1.12c-0.32,0-0.57,0.09-0.76,0.27c-0.19,0.18-0.29,0.42-0.29,0.71c0,0.63,0.44,1.03,1.31,1.18
					l0.82,0.15c2.31,0.42,3.47,1.62,3.47,3.6c0,1-0.38,1.84-1.13,2.52c-0.76,0.69-1.78,1.03-3.07,1.03c-1.16,0-2.13-0.31-2.9-0.93
					c-0.77-0.62-1.24-1.43-1.4-2.44l2.88-0.38c0.05,0.42,0.21,0.74,0.48,0.97c0.26,0.23,0.6,0.35,1.02,0.35c0.37,0,0.67-0.1,0.9-0.3
					c0.23-0.2,0.35-0.47,0.35-0.82C134.35,21.74,133.91,21.34,133.04,21.18z"/>
			</g>
		</g>
		<g>
			<g>
				<g>
					<path class="st2" d="M195.79,34.74l16.62-17.91l-2.84-8.93h5.37l1.34,4.91l15.46-10.3l-14.03,14.27l3.05,9.54h-5.45l-1.48-5.46
						L195.79,34.74z"/>
					<path class="st2" d="M220.51,31.49l5.59-18.75h4.03l-0.09,1.05c0.41-0.31,0.91-0.62,1.51-0.91c0.6-0.29,1.29-0.44,2.09-0.44
						c1.26,0,2.23,0.37,2.92,1.1c0.37,0.42,0.64,0.9,0.8,1.43c0.16,0.53,0.24,1.07,0.24,1.61c0.01,0.54-0.04,1.07-0.14,1.58
						c-0.1,0.51-0.2,0.97-0.32,1.35c-0.31,1.03-0.73,1.98-1.28,2.84c-0.55,0.86-1.18,1.61-1.9,2.23c-0.72,0.63-1.52,1.11-2.38,1.46
						c-0.86,0.35-1.78,0.52-2.74,0.52c-0.82,0-1.52-0.13-2.11-0.39l-1.58,5.29H220.51z M228.95,23.06c0.83,0,1.56-0.31,2.19-0.92
						c0.63-0.62,1.11-1.48,1.44-2.58c0.35-1.16,0.41-2.05,0.2-2.67c-0.21-0.63-0.67-0.94-1.37-0.94c-0.37,0-0.72,0.1-1.06,0.29
						c-0.34,0.19-0.6,0.36-0.79,0.51l-1.79,6.01C228.17,22.95,228.56,23.06,228.95,23.06z"/>
					<path class="st2" d="M237.49,26.31l4.05-13.57h4.11l-0.13,1.38c0.42-0.37,0.95-0.72,1.58-1.06c0.63-0.34,1.33-0.51,2.11-0.51
						c0.31,0,0.62,0.02,0.92,0.07c0.3,0.05,0.54,0.12,0.72,0.21l-1.68,3.78c-0.49-0.15-0.96-0.22-1.41-0.22
						c-0.56,0-1.12,0.16-1.69,0.48c-0.57,0.32-1.04,0.64-1.41,0.95l-2.53,8.49H237.49z"/>
					<path class="st2" d="M254.31,26.59c-0.98,0-1.84-0.14-2.58-0.43c-0.74-0.28-1.33-0.72-1.76-1.31
						c-0.44-0.59-0.69-1.32-0.77-2.21s0.06-1.92,0.42-3.12c0.48-1.62,1.24-3,2.26-4.14c1.03-1.16,2.14-1.94,3.31-2.34
						c1.1-0.4,2.14-0.61,3.13-0.61c1.93,0,3.26,0.66,3.99,1.99c0.74,1.32,0.71,3.34-0.08,6.04h-8.37c-0.21,0.83-0.13,1.46,0.22,1.9
						c0.36,0.44,1.01,0.66,1.96,0.66c0.78,0,1.47-0.14,2.07-0.43c0.6-0.28,1.22-0.64,1.85-1.06l0.39,3.25
						c-0.37,0.31-0.83,0.58-1.37,0.81c-0.54,0.23-1.1,0.42-1.67,0.58c-0.58,0.16-1.13,0.27-1.66,0.34
						C255.11,26.6,254.67,26.62,254.31,26.59z M254.65,17.9h4c0.17-0.7,0.14-1.27-0.09-1.71c-0.23-0.44-0.61-0.66-1.15-0.66
						c-0.57,0-1.11,0.21-1.61,0.63C255.31,16.58,254.92,17.16,254.65,17.9z"/>
					<path class="st2" d="M267.65,26.59c-0.72,0-1.39-0.06-1.99-0.17c-0.61-0.11-1.14-0.25-1.6-0.41c-0.46-0.17-0.84-0.34-1.15-0.54
						c-0.3-0.19-0.53-0.36-0.67-0.51l2.36-3.14c0.2,0.2,0.44,0.4,0.71,0.59c0.28,0.19,0.6,0.36,0.99,0.51
						c0.73,0.29,1.5,0.44,2.31,0.44c0.43,0,0.81-0.05,1.16-0.17c0.35-0.11,0.57-0.34,0.68-0.69c0.14-0.48-0.44-0.89-1.74-1.24
						c-0.82-0.22-1.52-0.46-2.08-0.72c-0.56-0.26-1-0.56-1.32-0.9c-0.32-0.34-0.5-0.74-0.56-1.21c-0.05-0.47,0.01-1.02,0.21-1.67
						c0.19-0.77,0.56-1.44,1.1-2c0.54-0.56,1.15-1.02,1.82-1.37c0.68-0.35,1.39-0.6,2.14-0.76c0.75-0.16,1.44-0.22,2.06-0.21
						c1.33,0,2.37,0.16,3.12,0.48c0.75,0.32,1.37,0.68,1.86,1.09l-2.26,2.92c-0.22-0.18-0.48-0.36-0.76-0.52
						c-0.28-0.17-0.58-0.31-0.9-0.44c-0.31-0.13-0.62-0.23-0.92-0.3c-0.3-0.07-0.59-0.11-0.87-0.11c-0.43,0-0.83,0.05-1.19,0.14
						c-0.37,0.09-0.61,0.31-0.71,0.66c-0.1,0.35,0.02,0.62,0.38,0.83c0.36,0.2,0.9,0.39,1.63,0.55c1.23,0.35,2.16,0.78,2.78,1.3
						c0.3,0.24,0.52,0.49,0.65,0.76c0.13,0.27,0.22,0.53,0.26,0.8c0.04,0.27,0.04,0.53,0,0.8c-0.04,0.27-0.1,0.52-0.17,0.76
						c-0.35,1.18-0.98,2.11-1.9,2.81c-0.84,0.64-1.73,1.08-2.67,1.3C269.48,26.47,268.56,26.59,267.65,26.59z"/>
					<path class="st2" d="M280.94,26.59c-0.72,0-1.39-0.06-1.99-0.17c-0.61-0.11-1.14-0.25-1.6-0.41c-0.46-0.17-0.84-0.34-1.15-0.54
						c-0.3-0.19-0.53-0.36-0.67-0.51l2.36-3.14c0.2,0.2,0.44,0.4,0.71,0.59c0.28,0.19,0.61,0.36,0.99,0.51
						c0.73,0.29,1.5,0.44,2.31,0.44c0.43,0,0.81-0.05,1.16-0.17c0.35-0.11,0.57-0.34,0.68-0.69c0.14-0.48-0.44-0.89-1.74-1.24
						c-0.82-0.22-1.52-0.46-2.08-0.72c-0.56-0.26-1-0.56-1.32-0.9c-0.32-0.34-0.5-0.74-0.56-1.21c-0.05-0.47,0.01-1.02,0.21-1.67
						c0.19-0.77,0.56-1.44,1.1-2c0.54-0.56,1.15-1.02,1.83-1.37c0.68-0.35,1.39-0.6,2.14-0.76c0.75-0.16,1.44-0.22,2.06-0.21
						c1.33,0,2.37,0.16,3.12,0.48c0.75,0.32,1.37,0.68,1.86,1.09l-2.26,2.92c-0.22-0.18-0.48-0.36-0.76-0.52
						c-0.28-0.17-0.58-0.31-0.9-0.44c-0.31-0.13-0.62-0.23-0.92-0.3c-0.3-0.07-0.59-0.11-0.87-0.11c-0.43,0-0.82,0.05-1.19,0.14
						c-0.37,0.09-0.61,0.31-0.71,0.66c-0.1,0.35,0.02,0.62,0.38,0.83c0.36,0.2,0.9,0.39,1.63,0.55c1.23,0.35,2.16,0.78,2.78,1.3
						c0.3,0.24,0.52,0.49,0.65,0.76c0.13,0.27,0.22,0.53,0.26,0.8c0.04,0.27,0.04,0.53,0,0.8c-0.04,0.27-0.1,0.52-0.17,0.76
						c-0.35,1.18-0.98,2.11-1.9,2.81c-0.84,0.64-1.73,1.08-2.67,1.3C282.77,26.47,281.85,26.59,280.94,26.59z"/>
				</g>
				<g>
					<path class="st2" d="M226.21,37.5l2.3-8.63h2.8c0.37,0,0.73,0.03,1.08,0.1c0.35,0.07,0.66,0.18,0.93,0.32
						c0.47,0.24,0.81,0.62,1.02,1.15c0.1,0.26,0.18,0.51,0.22,0.77c0.04,0.25,0.06,0.5,0.06,0.74c0,0.24-0.02,0.46-0.06,0.67
						c-0.04,0.21-0.08,0.39-0.12,0.54c-0.23,0.86-0.62,1.64-1.17,2.34c-0.55,0.7-1.23,1.22-2.04,1.56
						c-0.33,0.14-0.68,0.25-1.04,0.32c-0.37,0.08-0.74,0.12-1.13,0.12H226.21z M228.95,35.51h0.56c0.49,0,0.91-0.11,1.26-0.32
						c0.34-0.2,0.63-0.47,0.87-0.81c0.24-0.34,0.42-0.74,0.54-1.18c0.12-0.44,0.15-0.83,0.1-1.17c-0.05-0.34-0.17-0.61-0.38-0.81
						c-0.13-0.12-0.3-0.21-0.5-0.27c-0.2-0.06-0.42-0.09-0.65-0.09h-0.57L228.95,35.51z"/>
					<path class="st2" d="M234.75,37.5l2.3-8.63h5.83l-0.53,2h-3.62l-0.37,1.4h2.96l-0.49,1.85h-2.96l-0.37,1.38h3.88l-0.53,2
						H234.75z"/>
					<path class="st2" d="M242.27,37.5l2.3-8.63h2.21l-1.76,6.63h3.67l-0.53,2H242.27z"/>
					<path class="st2" d="M249.52,37.5l2.3-8.63h2.21l-2.3,8.63H249.52z"/>
					<path class="st2" d="M256.04,37.5l-0.99-8.63h2.51l0.31,5.49l3.24-5.49h2.3l-5.42,8.63H256.04z"/>
					<path class="st2" d="M262.16,37.5l2.3-8.63h5.83l-0.53,2h-3.62l-0.37,1.4h2.96l-0.49,1.85h-2.96l-0.37,1.38h3.88l-0.53,2
						H262.16z"/>
					<path class="st2" d="M269.68,37.5l2.3-8.63h3.4c0.67,0,1.21,0.13,1.61,0.4c0.41,0.26,0.66,0.59,0.74,0.99
						c0.08,0.41,0.06,0.83-0.06,1.28c-0.15,0.57-0.41,1.03-0.77,1.38c-0.37,0.35-0.76,0.62-1.2,0.79c0.29,0.09,0.49,0.26,0.58,0.48
						c0.09,0.23,0.14,0.56,0.15,1l0.01,2.3h-2.22l-0.03-1.87c0.01-0.43-0.05-0.72-0.19-0.86c-0.14-0.14-0.35-0.21-0.65-0.21h-0.71
						l-0.78,2.95H269.68z M273.13,32.71h0.83c0.44,0,0.77-0.08,0.99-0.24c0.22-0.16,0.37-0.39,0.45-0.7
						c0.09-0.33,0.07-0.57-0.06-0.74c-0.13-0.16-0.41-0.25-0.85-0.25h-0.84L273.13,32.71z"/>
					<path class="st2" d="M279.44,37.5l0.89-3.36l-1.52-5.27h2.51l0.74,3.04l2.28-3.04h2.48l-4.28,5.27l-0.89,3.36H279.44z"/>
				</g>
			</g>
			<g>
				<path class="st2" d="M167.81,30.43c1.43,0,2.87,0,4.3,0c0.61,0,0.96,0.42,0.98,1.13c0.01,0.74-0.34,1.21-0.96,1.21
					c-2.91,0-5.82,0-8.73-0.01c-0.53,0-0.85-0.32-0.94-0.88c-0.13-0.82,0.24-1.44,0.88-1.45C164.84,30.43,166.33,30.43,167.81,30.43
					z"/>
				<g>
					<path class="st2" d="M183.89,11.55c-1.89-1.01-3.86-1.53-6.05-1.55c0,0.26,0.03,0.5-0.01,0.72c-0.02,0.12-0.16,0.23-0.25,0.34
						c-0.07-0.11-0.18-0.21-0.2-0.33c-0.03-0.22-0.01-0.44-0.01-0.72c-2.17,0.05-4.13,0.62-6.01,1.65c0.15,0.26,0.29,0.48,0.38,0.71
						c0.04,0.09-0.04,0.22-0.07,0.34c-0.11-0.04-0.26-0.04-0.32-0.12c-0.15-0.19-0.25-0.41-0.41-0.67
						c-1.81,1.11-3.22,2.56-4.34,4.39c0.22,0.13,0.43,0.24,0.61,0.39c0.1,0.08,0.12,0.25,0.17,0.38c-0.13,0.01-0.27,0.06-0.38,0.02
						c-0.21-0.08-0.39-0.21-0.64-0.35c-1.02,1.82-1.5,3.76-1.6,5.83c-0.54,0-1.05,0-1.6,0c0.14-3.83,1.55-7.09,4.17-9.84
						c-0.05-0.08-0.08-0.14-0.12-0.18c-0.33-0.41-0.67-0.83-1.02-1.27c-0.42,0.23-0.65-0.03-0.9-0.33
						c-0.81-1.02-0.82-0.82,0.18-1.64c0.47-0.39,0.96-0.76,1.43-1.15c0.25-0.21,0.46-0.19,0.66,0.07c0.21,0.27,0.44,0.52,0.64,0.79
						c0.07,0.08,0.16,0.25,0.12,0.3c-0.33,0.49,0.12,0.71,0.33,1c0.18,0.26,0.4,0.5,0.55,0.68c1.13-0.56,2.18-1.17,3.3-1.6
						c1.1-0.42,2.28-0.67,3.46-1c0-0.63,0-1.34,0-2.09c-0.61-0.01-0.63-0.42-0.61-0.89c0.02-0.56,0.01-1.13,0-1.69
						c-0.01-0.36,0.12-0.54,0.51-0.53c1.16,0.01,2.32,0.01,3.48,0c0.35,0,0.5,0.15,0.5,0.49c-0.01,0.61-0.02,1.23,0.01,1.84
						c0.02,0.45-0.06,0.78-0.61,0.76c0,0.73,0,1.43,0,2.2c2.44,0.29,4.69,1.1,6.77,2.52c0.35-0.44,0.7-0.86,1.06-1.3
						c-0.3-0.34-0.14-0.61,0.12-0.91c0.86-0.99,0.64-1.03,1.73-0.15c0.44,0.36,0.87,0.72,1.32,1.06c0.34,0.25,0.35,0.5,0.07,0.8
						c-0.2,0.21-0.36,0.45-0.56,0.67c-0.08,0.09-0.24,0.23-0.3,0.21c-0.52-0.21-0.65,0.24-0.88,0.5c-0.2,0.23-0.38,0.47-0.59,0.74
						c0.12,0.13,0.22,0.25,0.33,0.37c4.35,4.63,5.2,11.48,2.14,17.05c-0.17,0.31-0.36,0.44-0.72,0.42
						c-0.45-0.03-0.89-0.01-1.42-0.01c0.16-0.28,0.29-0.49,0.44-0.74c-0.2-0.13-0.41-0.22-0.57-0.36c-0.1-0.09-0.14-0.24-0.21-0.37
						c0.15-0.01,0.32-0.06,0.46-0.01c0.19,0.06,0.36,0.2,0.59,0.32c1.06-1.89,1.59-3.88,1.65-6.08c-0.24,0-0.45,0.03-0.64-0.01
						c-0.15-0.03-0.28-0.14-0.42-0.22c0.13-0.08,0.26-0.2,0.4-0.23c0.18-0.04,0.38-0.01,0.65-0.01c0-2.18-0.58-4.17-1.62-6.09
						c-0.23,0.13-0.41,0.26-0.62,0.34c-0.12,0.04-0.28,0-0.42-0.01c0.06-0.13,0.08-0.29,0.18-0.38c0.17-0.14,0.38-0.24,0.61-0.38
						c-1.13-1.85-2.6-3.29-4.46-4.4c-0.11,0.19-0.18,0.36-0.3,0.49c-0.12,0.13-0.3,0.21-0.45,0.31c0.02-0.19,0.01-0.38,0.06-0.56
						C183.67,11.89,183.78,11.75,183.89,11.55z"/>
					<path class="st2" d="M167.56,29.51c0.29-1.33,0.56-2.6,0.84-3.86c0.03-0.14,0.06-0.29,0.09-0.43c0.15-0.67,0.34-0.82,1.02-0.82
						c1.45,0,2.9,0,4.35,0c2.2,0,4.41,0,6.61,0c0.86,0,0.95,0.09,0.77,0.92c-0.66,3.03-1.33,6.05-1.98,9.08
						c-0.12,0.54-0.4,0.77-0.95,0.77c-3.73-0.01-7.45,0-11.18,0c-0.35,0-0.68-0.01-0.68-0.49c0-0.7,0.18-0.95,0.7-0.96
						c1.58,0,3.16,0.01,4.74-0.01c1.14-0.01,1.98-0.76,2.13-1.84c0.14-0.99-0.48-1.96-1.45-2.25c-0.29-0.09-0.61-0.09-0.92-0.1
						C170.3,29.5,168.96,29.51,167.56,29.51z"/>
					<path class="st2" d="M161.21,26.4c1.65,0,3.29-0.01,4.94,0c0.5,0,0.87,0.36,0.97,0.88c0.1,0.53-0.08,1.06-0.48,1.3
						c-0.14,0.09-0.32,0.14-0.47,0.15c-3.34,0.01-6.68,0.01-10.02,0c-0.41,0-0.74-0.21-0.9-0.68c-0.15-0.44-0.16-0.92,0.14-1.22
						c0.23-0.23,0.58-0.4,0.88-0.41C157.91,26.38,159.56,26.4,161.21,26.4z"/>
					<path class="st2" d="M153.57,30.42c1.34,0,2.67,0,4.01,0c0.64,0,1.02,0.43,1.02,1.16c0.01,0.7-0.39,1.2-1.01,1.2
						c-2.7,0.01-5.4,0.01-8.1,0c-0.61,0-0.99-0.5-0.97-1.23c0.02-0.7,0.38-1.12,1-1.12C150.87,30.42,152.22,30.42,153.57,30.42z"/>
					<path class="st2" d="M158.63,34.46c1.5,0,3.01,0,4.51,0c0.81,0,1.33,0.44,1.35,1.13c0.03,0.67-0.5,1.21-1.28,1.22
						c-3.1,0.02-6.2,0.02-9.3,0c-0.73,0-1.24-0.57-1.21-1.23c0.03-0.65,0.53-1.12,1.25-1.12C155.51,34.46,157.07,34.46,158.63,34.46
						z"/>
					<path class="st2" d="M177.6,14.23c0.15,2.71,0.3,5.42,0.46,8.2c2.67,0.15,5.33,0.3,7.98,0.45c0,0.02-6.09,0.41-8.21,0.51
						c-0.64,0.03-0.76-0.11-0.73-0.76c0.15-2.8,0.29-5.6,0.44-8.4C177.56,14.23,177.58,14.23,177.6,14.23z"/>
				</g>
			</g>
		</g>
	</g>
</g>
</svg>
